<?xml version="1.0" encoding="utf-8" standalone="no"?>
<!DOCTYPE svg PUBLIC "-//W3C//DTD SVG 1.1//EN"
  "http://www.w3.org/Graphics/SVG/1.1/DTD/svg11.dtd">
<svg xmlns:xlink="http://www.w3.org/1999/xlink" width="108pt" height="108pt" viewBox="0 0 108 108" xmlns="http://www.w3.org/2000/svg" version="1.1">
 <metadata>
  <rdf:RDF xmlns:dc="http://purl.org/dc/elements/1.1/" xmlns:cc="http://creativecommons.org/ns#" xmlns:rdf="http://www.w3.org/1999/02/22-rdf-syntax-ns#">
   <cc:Work>
    <dc:type rdf:resource="http://purl.org/dc/dcmitype/StillImage"/>
    <dc:date>2025-04-27T18:32:30.366232</dc:date>
    <dc:format>image/svg+xml</dc:format>
    <dc:creator>
     <cc:Agent>
      <dc:title>Matplotlib v3.10.1, https://matplotlib.org/</dc:title>
     </cc:Agent>
    </dc:creator>
   </cc:Work>
  </rdf:RDF>
 </metadata>
 <defs>
  <style type="text/css">*{stroke-linejoin: round; stroke-linecap: butt}</style>
 </defs>
 <g id="figure_1">
  <g id="patch_1">
   <path d="M 0 108 
L 108 108 
L 108 0 
L 0 0 
z
" style="fill: #ffffff"/>
  </g>
  <g id="axes_1">
   <g id="patch_2">
    <path d="M 13.5 96.12 
L 97.2 96.12 
L 97.2 12.96 
L 13.5 12.96 
z
" style="fill: #ffffff"/>
   </g>
   <g id="FillBetweenPolyCollection_1">
    <defs>
     <path id="mbed21601dc" d="M 13.5 -11.88 
L 13.5 -11.980719 
L 13.920603 -11.947146 
L 14.341206 -12.014291 
L 14.761809 -11.980719 
L 15.182412 -11.980719 
L 15.603015 -12.047864 
L 16.023618 -12.081437 
L 16.444221 -12.081437 
L 16.864824 -11.980719 
L 17.285427 -12.11501 
L 17.70603 -12.316447 
L 18.126633 -12.215729 
L 18.547236 -12.215729 
L 18.967839 -12.450739 
L 19.388442 -12.82004 
L 19.809045 -12.719322 
L 20.229648 -12.719322 
L 20.650251 -12.517885 
L 21.070854 -12.517885 
L 21.491457 -12.82004 
L 21.91206 -12.450739 
L 22.332663 -12.719322 
L 22.753266 -12.786468 
L 23.173869 -12.920759 
L 23.594472 -12.685749 
L 24.015075 -12.685749 
L 24.435678 -13.05505 
L 24.856281 -13.155769 
L 25.276884 -13.357206 
L 25.697487 -13.625789 
L 26.11809 -13.726508 
L 26.538693 -13.390779 
L 26.959296 -13.927945 
L 27.379899 -13.995091 
L 27.800503 -14.532257 
L 28.221106 -14.397965 
L 28.641709 -14.364392 
L 29.062312 -14.129382 
L 29.482915 -14.364392 
L 29.903518 -14.700121 
L 30.324121 -14.33082 
L 30.744724 -14.80084 
L 31.165327 -14.028664 
L 31.58593 -14.80084 
L 32.006533 -15.50587 
L 32.427136 -16.009463 
L 32.847739 -15.673734 
L 33.268342 -16.177327 
L 33.688945 -16.714493 
L 34.109548 -17.083795 
L 34.530151 -16.714493 
L 34.950754 -17.218086 
L 35.371357 -17.620961 
L 35.79196 -18.393137 
L 36.212563 -18.628147 
L 36.633166 -19.36675 
L 37.053769 -21.515414 
L 37.474372 -21.985434 
L 37.894975 -21.481841 
L 38.315578 -24.234816 
L 38.736181 -25.174857 
L 39.156784 -27.08851 
L 39.577387 -28.666435 
L 39.99799 -28.867872 
L 40.418593 -30.546516 
L 40.839196 -31.419411 
L 41.259799 -32.560888 
L 41.680402 -37.395382 
L 42.101005 -37.294663 
L 42.521608 -42.532031 
L 42.942211 -40.88696 
L 43.362814 -45.486443 
L 43.783417 -45.016423 
L 44.20402 -49.985208 
L 44.624623 -50.320937 
L 45.045226 -53.678224 
L 45.465829 -56.867646 
L 45.886432 -56.129043 
L 46.307035 -62.272878 
L 46.727638 -64.891562 
L 47.148241 -67.174518 
L 47.568844 -70.531805 
L 47.989447 -74.090529 
L 48.41005 -77.078514 
L 48.830653 -79.59648 
L 49.251256 -81.845862 
L 49.671859 -84.464546 
L 50.092462 -86.042471 
L 50.513065 -90.373371 
L 50.933668 -90.23908 
L 51.354271 -89.466904 
L 51.774874 -94.536407 
L 52.195477 -95.04 
L 52.61608 -92.219879 
L 53.036683 -91.88415 
L 53.457286 -90.272652 
L 53.877889 -91.716286 
L 54.298492 -92.992055 
L 54.719095 -92.186306 
L 55.139698 -90.373371 
L 55.560302 -89.198321 
L 55.980905 -89.567622 
L 56.401508 -87.687541 
L 56.822111 -83.658797 
L 57.242714 -81.47656 
L 57.663317 -81.342269 
L 58.08392 -77.682826 
L 58.504523 -76.306338 
L 58.925126 -74.627695 
L 59.345729 -71.807574 
L 59.766332 -67.610965 
L 60.186935 -67.879548 
L 60.607538 -62.977909 
L 61.028141 -59.553476 
L 61.448744 -57.304094 
L 61.869347 -56.766928 
L 62.28995 -51.395268 
L 62.710553 -48.776585 
L 63.131156 -48.642293 
L 63.551759 -45.855745 
L 63.972362 -42.364166 
L 64.392965 -44.109956 
L 64.813568 -39.309035 
L 65.234171 -37.462527 
L 65.654774 -35.112426 
L 66.075377 -32.795898 
L 66.49598 -31.452983 
L 66.916583 -30.747953 
L 67.337186 -28.968591 
L 67.757789 -27.357093 
L 68.178392 -26.182043 
L 68.598995 -25.275575 
L 69.019598 -23.731223 
L 69.440201 -22.321163 
L 69.860804 -20.776811 
L 70.281407 -20.709665 
L 70.70201 -19.501042 
L 71.122613 -18.225273 
L 71.543216 -18.359564 
L 71.963819 -17.755252 
L 72.384422 -16.2109 
L 72.805025 -16.781639 
L 73.225628 -16.177327 
L 73.646231 -16.076609 
L 74.066834 -15.237287 
L 74.487437 -14.867985 
L 74.90804 -14.80084 
L 75.328643 -13.995091 
L 75.749246 -13.961518 
L 76.169849 -13.793654 
L 76.590452 -13.793654 
L 77.011055 -13.491498 
L 77.431658 -13.357206 
L 77.852261 -13.155769 
L 78.272864 -13.155769 
L 78.693467 -13.357206 
L 79.11407 -13.357206 
L 79.534673 -13.189342 
L 79.955276 -12.920759 
L 80.375879 -12.786468 
L 80.796482 -12.417166 
L 81.217085 -12.484312 
L 81.637688 -12.383593 
L 82.058291 -12.417166 
L 82.478894 -12.517885 
L 82.899497 -12.450739 
L 83.320101 -12.417166 
L 83.740704 -12.215729 
L 84.161307 -12.282874 
L 84.58191 -12.316447 
L 85.002513 -12.316447 
L 85.423116 -12.11501 
L 85.843719 -12.35002 
L 86.264322 -12.249302 
L 86.684925 -12.282874 
L 87.105528 -12.35002 
L 87.526131 -12.182156 
L 87.946734 -12.249302 
L 88.367337 -12.11501 
L 88.78794 -12.484312 
L 89.208543 -12.35002 
L 89.629146 -12.417166 
L 90.049749 -12.316447 
L 90.470352 -12.383593 
L 90.890955 -12.182156 
L 91.311558 -12.249302 
L 91.732161 -12.316447 
L 92.152764 -12.11501 
L 92.573367 -12.014291 
L 92.99397 -12.249302 
L 93.414573 -12.215729 
L 93.835176 -12.282874 
L 94.255779 -12.081437 
L 94.676382 -12.148583 
L 95.096985 -12.047864 
L 95.517588 -11.980719 
L 95.938191 -12.014291 
L 96.358794 -12.014291 
L 96.779397 -11.947146 
L 97.2 -11.947146 
L 97.2 -11.88 
L 97.2 -11.88 
L 96.779397 -11.88 
L 96.358794 -11.88 
L 95.938191 -11.88 
L 95.517588 -11.88 
L 95.096985 -11.88 
L 94.676382 -11.88 
L 94.255779 -11.88 
L 93.835176 -11.88 
L 93.414573 -11.88 
L 92.99397 -11.88 
L 92.573367 -11.88 
L 92.152764 -11.88 
L 91.732161 -11.88 
L 91.311558 -11.88 
L 90.890955 -11.88 
L 90.470352 -11.88 
L 90.049749 -11.88 
L 89.629146 -11.88 
L 89.208543 -11.88 
L 88.78794 -11.88 
L 88.367337 -11.88 
L 87.946734 -11.88 
L 87.526131 -11.88 
L 87.105528 -11.88 
L 86.684925 -11.88 
L 86.264322 -11.88 
L 85.843719 -11.88 
L 85.423116 -11.88 
L 85.002513 -11.88 
L 84.58191 -11.88 
L 84.161307 -11.88 
L 83.740704 -11.88 
L 83.320101 -11.88 
L 82.899497 -11.88 
L 82.478894 -11.88 
L 82.058291 -11.88 
L 81.637688 -11.88 
L 81.217085 -11.88 
L 80.796482 -11.88 
L 80.375879 -11.88 
L 79.955276 -11.88 
L 79.534673 -11.88 
L 79.11407 -11.88 
L 78.693467 -11.88 
L 78.272864 -11.88 
L 77.852261 -11.88 
L 77.431658 -11.88 
L 77.011055 -11.88 
L 76.590452 -11.88 
L 76.169849 -11.88 
L 75.749246 -11.88 
L 75.328643 -11.88 
L 74.90804 -11.88 
L 74.487437 -11.88 
L 74.066834 -11.88 
L 73.646231 -11.88 
L 73.225628 -11.88 
L 72.805025 -11.88 
L 72.384422 -11.88 
L 71.963819 -11.88 
L 71.543216 -11.88 
L 71.122613 -11.88 
L 70.70201 -11.88 
L 70.281407 -11.88 
L 69.860804 -11.88 
L 69.440201 -11.88 
L 69.019598 -11.88 
L 68.598995 -11.88 
L 68.178392 -11.88 
L 67.757789 -11.88 
L 67.337186 -11.88 
L 66.916583 -11.88 
L 66.49598 -11.88 
L 66.075377 -11.88 
L 65.654774 -11.88 
L 65.234171 -11.88 
L 64.813568 -11.88 
L 64.392965 -11.88 
L 63.972362 -11.88 
L 63.551759 -11.88 
L 63.131156 -11.88 
L 62.710553 -11.88 
L 62.28995 -11.88 
L 61.869347 -11.88 
L 61.448744 -11.88 
L 61.028141 -11.88 
L 60.607538 -11.88 
L 60.186935 -11.88 
L 59.766332 -11.88 
L 59.345729 -11.88 
L 58.925126 -11.88 
L 58.504523 -11.88 
L 58.08392 -11.88 
L 57.663317 -11.88 
L 57.242714 -11.88 
L 56.822111 -11.88 
L 56.401508 -11.88 
L 55.980905 -11.88 
L 55.560302 -11.88 
L 55.139698 -11.88 
L 54.719095 -11.88 
L 54.298492 -11.88 
L 53.877889 -11.88 
L 53.457286 -11.88 
L 53.036683 -11.88 
L 52.61608 -11.88 
L 52.195477 -11.88 
L 51.774874 -11.88 
L 51.354271 -11.88 
L 50.933668 -11.88 
L 50.513065 -11.88 
L 50.092462 -11.88 
L 49.671859 -11.88 
L 49.251256 -11.88 
L 48.830653 -11.88 
L 48.41005 -11.88 
L 47.989447 -11.88 
L 47.568844 -11.88 
L 47.148241 -11.88 
L 46.727638 -11.88 
L 46.307035 -11.88 
L 45.886432 -11.88 
L 45.465829 -11.88 
L 45.045226 -11.88 
L 44.624623 -11.88 
L 44.20402 -11.88 
L 43.783417 -11.88 
L 43.362814 -11.88 
L 42.942211 -11.88 
L 42.521608 -11.88 
L 42.101005 -11.88 
L 41.680402 -11.88 
L 41.259799 -11.88 
L 40.839196 -11.88 
L 40.418593 -11.88 
L 39.99799 -11.88 
L 39.577387 -11.88 
L 39.156784 -11.88 
L 38.736181 -11.88 
L 38.315578 -11.88 
L 37.894975 -11.88 
L 37.474372 -11.88 
L 37.053769 -11.88 
L 36.633166 -11.88 
L 36.212563 -11.88 
L 35.79196 -11.88 
L 35.371357 -11.88 
L 34.950754 -11.88 
L 34.530151 -11.88 
L 34.109548 -11.88 
L 33.688945 -11.88 
L 33.268342 -11.88 
L 32.847739 -11.88 
L 32.427136 -11.88 
L 32.006533 -11.88 
L 31.58593 -11.88 
L 31.165327 -11.88 
L 30.744724 -11.88 
L 30.324121 -11.88 
L 29.903518 -11.88 
L 29.482915 -11.88 
L 29.062312 -11.88 
L 28.641709 -11.88 
L 28.221106 -11.88 
L 27.800503 -11.88 
L 27.379899 -11.88 
L 26.959296 -11.88 
L 26.538693 -11.88 
L 26.11809 -11.88 
L 25.697487 -11.88 
L 25.276884 -11.88 
L 24.856281 -11.88 
L 24.435678 -11.88 
L 24.015075 -11.88 
L 23.594472 -11.88 
L 23.173869 -11.88 
L 22.753266 -11.88 
L 22.332663 -11.88 
L 21.91206 -11.88 
L 21.491457 -11.88 
L 21.070854 -11.88 
L 20.650251 -11.88 
L 20.229648 -11.88 
L 19.809045 -11.88 
L 19.388442 -11.88 
L 18.967839 -11.88 
L 18.547236 -11.88 
L 18.126633 -11.88 
L 17.70603 -11.88 
L 17.285427 -11.88 
L 16.864824 -11.88 
L 16.444221 -11.88 
L 16.023618 -11.88 
L 15.603015 -11.88 
L 15.182412 -11.88 
L 14.761809 -11.88 
L 14.341206 -11.88 
L 13.920603 -11.88 
L 13.5 -11.88 
z
" style="stroke: #000000; stroke-opacity: 0.3"/>
    </defs>
    <g clip-path="url(#p6dc1bae0c3)">
     <use xlink:href="#mbed21601dc" x="0" y="108" style="fill-opacity: 0.3; stroke: #000000; stroke-opacity: 0.3"/>
    </g>
   </g>
   <g id="matplotlib.axis_1">
    <g id="xtick_1">
     <g id="line2d_1">
      <defs>
       <path id="me19dfe69da" d="M 0 0 
L 0 3.5 
" style="stroke: #000000; stroke-width: 0.5"/>
      </defs>
      <g>
       <use xlink:href="#me19dfe69da" x="18.992446" y="96.12" style="stroke: #000000; stroke-width: 0.5"/>
      </g>
     </g>
     <g id="text_1">
      <text style="font-size: 20px; font-family: 'Arial', sans-serif; text-anchor: middle" x="18.992446" y="117.435625" transform="rotate(-0 18.992446 117.435625)">−50</text>
     </g>
    </g>
    <g id="xtick_2">
     <g id="line2d_2">
      <g>
       <use xlink:href="#me19dfe69da" x="53.627541" y="96.12" style="stroke: #000000; stroke-width: 0.5"/>
      </g>
     </g>
     <g id="text_2">
      <text style="font-size: 20px; font-family: 'Arial', sans-serif; text-anchor: middle" x="53.627541" y="117.435625" transform="rotate(-0 53.627541 117.435625)">0</text>
     </g>
    </g>
    <g id="xtick_3">
     <g id="line2d_3">
      <g>
       <use xlink:href="#me19dfe69da" x="88.262636" y="96.12" style="stroke: #000000; stroke-width: 0.5"/>
      </g>
     </g>
     <g id="text_3">
      <text style="font-size: 20px; font-family: 'Arial', sans-serif; text-anchor: middle" x="88.262636" y="117.435625" transform="rotate(-0 88.262636 117.435625)">50</text>
     </g>
    </g>
    <g id="text_4">
     <text style="font-size: 20px; font-family: 'Arial', sans-serif; text-anchor: middle" x="55.35" y="139.97" transform="rotate(-0 55.35 139.97)">Height (nm)</text>
    </g>
   </g>
   <g id="matplotlib.axis_2">
    <g id="ytick_1">
     <g id="line2d_4">
      <defs>
       <path id="m5c2e5e0b85" d="M 0 0 
L -3.5 0 
" style="stroke: #000000; stroke-width: 0.5"/>
      </defs>
      <g>
       <use xlink:href="#m5c2e5e0b85" x="13.5" y="96.12" style="stroke: #000000; stroke-width: 0.5"/>
      </g>
     </g>
     <g id="text_5">
      <text style="font-size: 20px; font-family: 'Arial', sans-serif; text-anchor: end" x="6.5" y="103.277812" transform="rotate(-0 6.5 103.277812)">0.00</text>
     </g>
    </g>
    <g id="ytick_2">
     <g id="line2d_5">
      <g>
       <use xlink:href="#m5c2e5e0b85" x="13.5" y="20.540754" style="stroke: #000000; stroke-width: 0.5"/>
      </g>
     </g>
     <g id="text_6">
      <text style="font-size: 20px; font-family: 'Arial', sans-serif; text-anchor: end" x="6.5" y="27.698567" transform="rotate(-0 6.5 27.698567)">0.02</text>
     </g>
    </g>
    <g id="text_7">
     <text style="font-size: 20px; font-family: 'Arial', sans-serif; text-anchor: middle" x="-40.396875" y="54.54" transform="rotate(-90 -40.396875 54.54)">Prob.</text>
    </g>
   </g>
   <g id="line2d_6">
    <path d="M 13.5 96.119897 
L 25.276884 96.026422 
L 27.800503 95.823409 
L 29.482915 95.517285 
L 30.744724 95.125948 
L 32.006533 94.524153 
L 33.268342 93.626221 
L 34.109548 92.811784 
L 34.950754 91.783664 
L 35.79196 90.503766 
L 36.633166 88.932786 
L 37.474372 87.031983 
L 38.736181 83.485177 
L 39.99799 79.021667 
L 41.259799 73.597167 
L 42.521608 67.241352 
L 44.20402 57.546294 
L 49.251256 27.180083 
L 50.513065 21.607844 
L 51.354271 18.812287 
L 52.195477 16.867734 
L 52.61608 16.23715 
L 53.036683 15.842525 
L 53.457286 15.687392 
L 53.877889 15.773144 
L 54.298492 16.099012 
L 54.719095 16.662074 
L 55.560302 18.477641 
L 56.401508 21.155891 
L 57.242714 24.604331 
L 58.504523 30.963146 
L 60.186935 40.935805 
L 63.972362 64.253268 
L 65.654774 73.025785 
L 66.916583 78.542402 
L 68.178392 83.097318 
L 69.440201 86.728695 
L 70.70201 89.527713 
L 71.963819 91.615663 
L 73.225628 93.124218 
L 74.487437 94.18057 
L 75.749246 94.897855 
L 77.011055 95.370354 
L 78.693467 95.745364 
L 80.796482 95.972849 
L 84.58191 96.097341 
L 96.779397 96.11999 
L 97.2 96.119992 
L 97.2 96.119992 
" clip-path="url(#p6dc1bae0c3)" style="fill: none; stroke-dasharray: 3.7,1.6; stroke-dashoffset: 0; stroke: #000000"/>
   </g>
   <g id="patch_3">
    <path d="M 13.5 96.12 
L 13.5 12.96 
" style="fill: none; stroke: #000000; stroke-width: 0.5; stroke-linejoin: miter; stroke-linecap: square"/>
   </g>
   <g id="patch_4">
    <path d="M 97.2 96.12 
L 97.2 12.96 
" style="fill: none; stroke: #000000; stroke-width: 0.5; stroke-linejoin: miter; stroke-linecap: square"/>
   </g>
   <g id="patch_5">
    <path d="M 13.5 96.12 
L 97.2 96.12 
" style="fill: none; stroke: #000000; stroke-width: 0.5; stroke-linejoin: miter; stroke-linecap: square"/>
   </g>
   <g id="patch_6">
    <path d="M 13.5 12.96 
L 97.2 12.96 
" style="fill: none; stroke: #000000; stroke-width: 0.5; stroke-linejoin: miter; stroke-linecap: square"/>
   </g>
  </g>
 </g>
 <defs>
  <clipPath id="p6dc1bae0c3">
   <rect x="13.5" y="12.96" width="83.7" height="83.16"/>
  </clipPath>
 </defs>
</svg>
