<?xml version="1.0" encoding="utf-8" standalone="no"?>
<!DOCTYPE svg PUBLIC "-//W3C//DTD SVG 1.1//EN"
  "http://www.w3.org/Graphics/SVG/1.1/DTD/svg11.dtd">
<svg xmlns:xlink="http://www.w3.org/1999/xlink" width="108pt" height="108pt" viewBox="0 0 108 108" xmlns="http://www.w3.org/2000/svg" version="1.1">
 <metadata>
  <rdf:RDF xmlns:dc="http://purl.org/dc/elements/1.1/" xmlns:cc="http://creativecommons.org/ns#" xmlns:rdf="http://www.w3.org/1999/02/22-rdf-syntax-ns#">
   <cc:Work>
    <dc:type rdf:resource="http://purl.org/dc/dcmitype/StillImage"/>
    <dc:date>2025-02-24T09:14:00.716287</dc:date>
    <dc:format>image/svg+xml</dc:format>
    <dc:creator>
     <cc:Agent>
      <dc:title>Matplotlib v3.7.5, https://matplotlib.org/</dc:title>
     </cc:Agent>
    </dc:creator>
   </cc:Work>
  </rdf:RDF>
 </metadata>
 <defs>
  <style type="text/css">*{stroke-linejoin: round; stroke-linecap: butt}</style>
 </defs>
 <g id="figure_1">
  <g id="patch_1">
   <path d="M 0 108 
L 108 108 
L 108 0 
L 0 0 
z
" style="fill: #ffffff"/>
  </g>
  <g id="axes_1">
   <g id="patch_2">
    <path d="M 13.5 96.12 
L 97.2 96.12 
L 97.2 12.96 
L 13.5 12.96 
z
" style="fill: #ffffff"/>
   </g>
   <g id="PolyCollection_1">
    <path d="M 13.5 96.12 
L 13.5 96.109032 
L 13.920603 96.098064 
L 14.341206 96.087096 
L 14.761809 96.12 
L 15.182412 96.076128 
L 15.603015 96.098064 
L 16.023618 96.054192 
L 16.444221 96.076128 
L 16.864824 96.087096 
L 17.285427 96.06516 
L 17.70603 96.021287 
L 18.126633 96.043223 
L 18.547236 96.010319 
L 18.967839 95.988383 
L 19.388442 96.076128 
L 19.809045 96.032255 
L 20.229648 96.021287 
L 20.650251 96.021287 
L 21.070854 96.010319 
L 21.491457 95.867734 
L 21.91206 96.010319 
L 22.332663 95.999351 
L 22.753266 95.999351 
L 23.173869 95.944511 
L 23.594472 96.021287 
L 24.015075 95.977415 
L 24.435678 95.988383 
L 24.856281 95.999351 
L 25.276884 95.999351 
L 25.697487 95.977415 
L 26.11809 95.922575 
L 26.538693 95.944511 
L 26.959296 96.010319 
L 27.379899 95.977415 
L 27.800503 95.922575 
L 28.221106 95.977415 
L 28.641709 95.966447 
L 29.062312 96.010319 
L 29.482915 95.878702 
L 29.903518 95.988383 
L 30.324121 95.955479 
L 30.744724 95.999351 
L 31.165327 95.955479 
L 31.58593 95.922575 
L 32.006533 95.999351 
L 32.427136 95.933543 
L 32.847739 95.933543 
L 33.268342 95.900638 
L 33.688945 95.966447 
L 34.109548 95.966447 
L 34.530151 95.933543 
L 34.950754 95.999351 
L 35.371357 95.955479 
L 35.79196 95.955479 
L 36.212563 95.977415 
L 36.633166 95.988383 
L 37.053769 95.922575 
L 37.474372 95.955479 
L 37.894975 95.933543 
L 38.315578 95.878702 
L 38.736181 95.911606 
L 39.156784 95.944511 
L 39.577387 95.977415 
L 39.99799 95.911606 
L 40.418593 95.977415 
L 40.839196 96.010319 
L 41.259799 95.911606 
L 41.680402 95.966447 
L 42.101005 95.944511 
L 42.521608 95.911606 
L 42.942211 95.900638 
L 43.362814 95.933543 
L 43.783417 95.900638 
L 44.20402 95.878702 
L 44.624623 95.83483 
L 45.045226 95.966447 
L 45.465829 95.944511 
L 45.886432 95.977415 
L 46.307035 95.988383 
L 46.727638 95.977415 
L 47.148241 95.823862 
L 47.568844 95.966447 
L 47.989447 95.911606 
L 48.41005 95.878702 
L 48.830653 95.900638 
L 49.251256 95.900638 
L 49.671859 95.845798 
L 50.092462 95.944511 
L 50.513065 95.779989 
L 50.933668 95.878702 
L 51.354271 95.933543 
L 51.774874 95.801926 
L 52.195477 95.823862 
L 52.61608 95.867734 
L 53.036683 95.977415 
L 53.457286 95.88967 
L 53.877889 95.867734 
L 54.298492 95.867734 
L 54.719095 95.845798 
L 55.139698 95.933543 
L 55.560302 95.922575 
L 55.980905 95.856766 
L 56.401508 95.812894 
L 56.822111 95.823862 
L 57.242714 95.736117 
L 57.663317 95.769021 
L 58.08392 95.747085 
L 58.504523 95.856766 
L 58.925126 95.812894 
L 59.345729 95.801926 
L 59.766332 95.878702 
L 60.186935 95.747085 
L 60.607538 95.714181 
L 61.028141 95.878702 
L 61.448744 95.779989 
L 61.869347 95.790958 
L 62.28995 95.790958 
L 62.710553 95.823862 
L 63.131156 95.725149 
L 63.551759 95.769021 
L 63.972362 95.779989 
L 64.392965 95.703213 
L 64.813568 95.659341 
L 65.234171 95.483851 
L 65.654774 95.637404 
L 66.075377 95.725149 
L 66.49598 95.692245 
L 66.916583 95.692245 
L 67.337186 95.648372 
L 67.757789 95.571596 
L 68.178392 95.637404 
L 68.598995 95.494819 
L 69.019598 95.593532 
L 69.440201 95.571596 
L 69.860804 95.461915 
L 70.281407 95.220617 
L 70.70201 95.067064 
L 71.122613 94.628341 
L 71.543216 94.178649 
L 71.963819 94.047032 
L 72.384422 93.345075 
L 72.805025 92.961192 
L 73.225628 91.864384 
L 73.646231 91.140491 
L 74.066834 89.572055 
L 74.487437 87.586832 
L 74.90804 84.230599 
L 75.328643 81.060823 
L 75.749246 75.993569 
L 76.169849 71.003092 
L 76.590452 63.643508 
L 77.011055 55.823266 
L 77.431658 46.851374 
L 77.852261 40.654408 
L 78.272864 30.410219 
L 78.693467 23.379678 
L 79.11407 17.796924 
L 79.534673 15.394914 
L 79.955276 13.332915 
L 80.375879 12.96 
L 80.796482 17.731116 
L 81.217085 22.195125 
L 81.637688 27.712071 
L 82.058291 37.407855 
L 82.478894 45.930055 
L 82.899497 53.980628 
L 83.320101 61.373115 
L 83.740704 68.644954 
L 84.161307 75.478069 
L 84.58191 80.589195 
L 85.002513 85.064173 
L 85.423116 89.001715 
L 85.843719 91.348884 
L 86.264322 93.367011 
L 86.684925 94.123809 
L 87.105528 94.957383 
L 87.526131 95.396107 
L 87.946734 95.747085 
L 88.367337 95.867734 
L 88.78794 95.944511 
L 89.208543 95.999351 
L 89.629146 96.043223 
L 90.049749 96.098064 
L 90.470352 96.098064 
L 90.890955 96.109032 
L 91.311558 96.12 
L 91.732161 96.109032 
L 92.152764 96.109032 
L 92.573367 96.098064 
L 92.99397 96.098064 
L 93.414573 96.098064 
L 93.835176 96.098064 
L 94.255779 96.109032 
L 94.676382 96.076128 
L 95.096985 96.098064 
L 95.517588 96.098064 
L 95.938191 96.109032 
L 96.358794 96.12 
L 96.779397 96.12 
L 97.2 96.098064 
L 97.2 96.12 
L 97.2 96.12 
L 96.779397 96.12 
L 96.358794 96.12 
L 95.938191 96.12 
L 95.517588 96.12 
L 95.096985 96.12 
L 94.676382 96.12 
L 94.255779 96.12 
L 93.835176 96.12 
L 93.414573 96.12 
L 92.99397 96.12 
L 92.573367 96.12 
L 92.152764 96.12 
L 91.732161 96.12 
L 91.311558 96.12 
L 90.890955 96.12 
L 90.470352 96.12 
L 90.049749 96.12 
L 89.629146 96.12 
L 89.208543 96.12 
L 88.78794 96.12 
L 88.367337 96.12 
L 87.946734 96.12 
L 87.526131 96.12 
L 87.105528 96.12 
L 86.684925 96.12 
L 86.264322 96.12 
L 85.843719 96.12 
L 85.423116 96.12 
L 85.002513 96.12 
L 84.58191 96.12 
L 84.161307 96.12 
L 83.740704 96.12 
L 83.320101 96.12 
L 82.899497 96.12 
L 82.478894 96.12 
L 82.058291 96.12 
L 81.637688 96.12 
L 81.217085 96.12 
L 80.796482 96.12 
L 80.375879 96.12 
L 79.955276 96.12 
L 79.534673 96.12 
L 79.11407 96.12 
L 78.693467 96.12 
L 78.272864 96.12 
L 77.852261 96.12 
L 77.431658 96.12 
L 77.011055 96.12 
L 76.590452 96.12 
L 76.169849 96.12 
L 75.749246 96.12 
L 75.328643 96.12 
L 74.90804 96.12 
L 74.487437 96.12 
L 74.066834 96.12 
L 73.646231 96.12 
L 73.225628 96.12 
L 72.805025 96.12 
L 72.384422 96.12 
L 71.963819 96.12 
L 71.543216 96.12 
L 71.122613 96.12 
L 70.70201 96.12 
L 70.281407 96.12 
L 69.860804 96.12 
L 69.440201 96.12 
L 69.019598 96.12 
L 68.598995 96.12 
L 68.178392 96.12 
L 67.757789 96.12 
L 67.337186 96.12 
L 66.916583 96.12 
L 66.49598 96.12 
L 66.075377 96.12 
L 65.654774 96.12 
L 65.234171 96.12 
L 64.813568 96.12 
L 64.392965 96.12 
L 63.972362 96.12 
L 63.551759 96.12 
L 63.131156 96.12 
L 62.710553 96.12 
L 62.28995 96.12 
L 61.869347 96.12 
L 61.448744 96.12 
L 61.028141 96.12 
L 60.607538 96.12 
L 60.186935 96.12 
L 59.766332 96.12 
L 59.345729 96.12 
L 58.925126 96.12 
L 58.504523 96.12 
L 58.08392 96.12 
L 57.663317 96.12 
L 57.242714 96.12 
L 56.822111 96.12 
L 56.401508 96.12 
L 55.980905 96.12 
L 55.560302 96.12 
L 55.139698 96.12 
L 54.719095 96.12 
L 54.298492 96.12 
L 53.877889 96.12 
L 53.457286 96.12 
L 53.036683 96.12 
L 52.61608 96.12 
L 52.195477 96.12 
L 51.774874 96.12 
L 51.354271 96.12 
L 50.933668 96.12 
L 50.513065 96.12 
L 50.092462 96.12 
L 49.671859 96.12 
L 49.251256 96.12 
L 48.830653 96.12 
L 48.41005 96.12 
L 47.989447 96.12 
L 47.568844 96.12 
L 47.148241 96.12 
L 46.727638 96.12 
L 46.307035 96.12 
L 45.886432 96.12 
L 45.465829 96.12 
L 45.045226 96.12 
L 44.624623 96.12 
L 44.20402 96.12 
L 43.783417 96.12 
L 43.362814 96.12 
L 42.942211 96.12 
L 42.521608 96.12 
L 42.101005 96.12 
L 41.680402 96.12 
L 41.259799 96.12 
L 40.839196 96.12 
L 40.418593 96.12 
L 39.99799 96.12 
L 39.577387 96.12 
L 39.156784 96.12 
L 38.736181 96.12 
L 38.315578 96.12 
L 37.894975 96.12 
L 37.474372 96.12 
L 37.053769 96.12 
L 36.633166 96.12 
L 36.212563 96.12 
L 35.79196 96.12 
L 35.371357 96.12 
L 34.950754 96.12 
L 34.530151 96.12 
L 34.109548 96.12 
L 33.688945 96.12 
L 33.268342 96.12 
L 32.847739 96.12 
L 32.427136 96.12 
L 32.006533 96.12 
L 31.58593 96.12 
L 31.165327 96.12 
L 30.744724 96.12 
L 30.324121 96.12 
L 29.903518 96.12 
L 29.482915 96.12 
L 29.062312 96.12 
L 28.641709 96.12 
L 28.221106 96.12 
L 27.800503 96.12 
L 27.379899 96.12 
L 26.959296 96.12 
L 26.538693 96.12 
L 26.11809 96.12 
L 25.697487 96.12 
L 25.276884 96.12 
L 24.856281 96.12 
L 24.435678 96.12 
L 24.015075 96.12 
L 23.594472 96.12 
L 23.173869 96.12 
L 22.753266 96.12 
L 22.332663 96.12 
L 21.91206 96.12 
L 21.491457 96.12 
L 21.070854 96.12 
L 20.650251 96.12 
L 20.229648 96.12 
L 19.809045 96.12 
L 19.388442 96.12 
L 18.967839 96.12 
L 18.547236 96.12 
L 18.126633 96.12 
L 17.70603 96.12 
L 17.285427 96.12 
L 16.864824 96.12 
L 16.444221 96.12 
L 16.023618 96.12 
L 15.603015 96.12 
L 15.182412 96.12 
L 14.761809 96.12 
L 14.341206 96.12 
L 13.920603 96.12 
L 13.5 96.12 
z
" clip-path="url(#p5cb547ca65)" style="fill: #1f77b4"/>
   </g>
   <g id="matplotlib.axis_1">
    <g id="xtick_1">
     <g id="line2d_1">
      <defs>
       <path id="mc9c988cdcc" d="M 0 0 
L 0 3.5 
" style="stroke: #000000; stroke-width: 0.5"/>
      </defs>
      <g>
       <use xlink:href="#mc9c988cdcc" x="26.279102" y="96.12" style="stroke: #000000; stroke-width: 0.5"/>
      </g>
     </g>
     <g id="text_1">
      <text style="font: 16px 'Arial', sans-serif; text-anchor: middle" x="26.279102" y="114.5725" transform="rotate(-0 26.279102 114.5725)">−100</text>
     </g>
    </g>
    <g id="xtick_2">
     <g id="line2d_2">
      <g>
       <use xlink:href="#mc9c988cdcc" x="79.398013" y="96.12" style="stroke: #000000; stroke-width: 0.5"/>
      </g>
     </g>
     <g id="text_2">
      <text style="font: 16px 'Arial', sans-serif; text-anchor: middle" x="79.398013" y="114.5725" transform="rotate(-0 79.398013 114.5725)">0</text>
     </g>
    </g>
    <g id="text_3">
     <text style="font: 16px 'Arial', sans-serif; text-anchor: middle" x="55.35" y="133.4" transform="rotate(-0 55.35 133.4)">Height (nm)</text>
    </g>
   </g>
   <g id="matplotlib.axis_2">
    <g id="ytick_1">
     <g id="line2d_3">
      <defs>
       <path id="mdd0cba7792" d="M 0 0 
L -3.5 0 
" style="stroke: #000000; stroke-width: 0.5"/>
      </defs>
      <g>
       <use xlink:href="#mdd0cba7792" x="13.5" y="96.12" style="stroke: #000000; stroke-width: 0.5"/>
      </g>
     </g>
     <g id="text_4">
      <text style="font: 16px 'Arial', sans-serif; text-anchor: end" x="6.5" y="101.84625" transform="rotate(-0 6.5 101.84625)">0.00</text>
     </g>
    </g>
    <g id="ytick_2">
     <g id="line2d_4">
      <g>
       <use xlink:href="#mdd0cba7792" x="13.5" y="32.031302" style="stroke: #000000; stroke-width: 0.5"/>
      </g>
     </g>
     <g id="text_5">
      <text style="font: 16px 'Arial', sans-serif; text-anchor: end" x="6.5" y="37.757552" transform="rotate(-0 6.5 37.757552)">0.05</text>
     </g>
    </g>
    <g id="text_6">
     <text style="font: 16px 'Arial', sans-serif; text-anchor: middle" x="-31.8175" y="54.54" transform="rotate(-90 -31.8175 54.54)">Prob.</text>
    </g>
   </g>
   <g id="patch_3">
    <path d="M 13.5 96.12 
L 13.5 12.96 
" style="fill: none; stroke: #000000; stroke-width: 0.5; stroke-linejoin: miter; stroke-linecap: square"/>
   </g>
   <g id="patch_4">
    <path d="M 97.2 96.12 
L 97.2 12.96 
" style="fill: none; stroke: #000000; stroke-width: 0.5; stroke-linejoin: miter; stroke-linecap: square"/>
   </g>
   <g id="patch_5">
    <path d="M 13.5 96.12 
L 97.2 96.12 
" style="fill: none; stroke: #000000; stroke-width: 0.5; stroke-linejoin: miter; stroke-linecap: square"/>
   </g>
   <g id="patch_6">
    <path d="M 13.5 12.96 
L 97.2 12.96 
" style="fill: none; stroke: #000000; stroke-width: 0.5; stroke-linejoin: miter; stroke-linecap: square"/>
   </g>
  </g>
 </g>
 <defs>
  <clipPath id="p5cb547ca65">
   <rect x="13.5" y="12.96" width="83.7" height="83.16"/>
  </clipPath>
 </defs>
</svg>
