<?xml version="1.0" encoding="utf-8" standalone="no"?>
<!DOCTYPE svg PUBLIC "-//W3C//DTD SVG 1.1//EN"
  "http://www.w3.org/Graphics/SVG/1.1/DTD/svg11.dtd">
<svg xmlns:xlink="http://www.w3.org/1999/xlink" width="108pt" height="108pt" viewBox="0 0 108 108" xmlns="http://www.w3.org/2000/svg" version="1.1">
 <metadata>
  <rdf:RDF xmlns:dc="http://purl.org/dc/elements/1.1/" xmlns:cc="http://creativecommons.org/ns#" xmlns:rdf="http://www.w3.org/1999/02/22-rdf-syntax-ns#">
   <cc:Work>
    <dc:type rdf:resource="http://purl.org/dc/dcmitype/StillImage"/>
    <dc:date>2025-04-27T18:31:16.418520</dc:date>
    <dc:format>image/svg+xml</dc:format>
    <dc:creator>
     <cc:Agent>
      <dc:title>Matplotlib v3.10.1, https://matplotlib.org/</dc:title>
     </cc:Agent>
    </dc:creator>
   </cc:Work>
  </rdf:RDF>
 </metadata>
 <defs>
  <style type="text/css">*{stroke-linejoin: round; stroke-linecap: butt}</style>
 </defs>
 <g id="figure_1">
  <g id="patch_1">
   <path d="M 0 108 
L 108 108 
L 108 0 
L 0 0 
z
" style="fill: #ffffff"/>
  </g>
  <g id="axes_1">
   <g id="patch_2">
    <path d="M 13.5 96.12 
L 97.2 96.12 
L 97.2 12.96 
L 13.5 12.96 
z
" style="fill: #ffffff"/>
   </g>
   <g id="FillBetweenPolyCollection_1">
    <defs>
     <path id="mfbd55e9b7e" d="M 13.5 -11.88 
L 13.5 -11.890968 
L 13.920603 -11.901936 
L 14.341206 -11.912904 
L 14.761809 -11.88 
L 15.182412 -11.923872 
L 15.603015 -11.901936 
L 16.023618 -11.945808 
L 16.444221 -11.923872 
L 16.864824 -11.912904 
L 17.285427 -11.93484 
L 17.70603 -11.978713 
L 18.126633 -11.956777 
L 18.547236 -11.989681 
L 18.967839 -12.011617 
L 19.388442 -11.923872 
L 19.809045 -11.967745 
L 20.229648 -11.978713 
L 20.650251 -11.978713 
L 21.070854 -11.989681 
L 21.491457 -12.132266 
L 21.91206 -11.989681 
L 22.332663 -12.000649 
L 22.753266 -12.000649 
L 23.173869 -12.055489 
L 23.594472 -11.978713 
L 24.015075 -12.022585 
L 24.435678 -12.011617 
L 24.856281 -12.000649 
L 25.276884 -12.000649 
L 25.697487 -12.022585 
L 26.11809 -12.077425 
L 26.538693 -12.055489 
L 26.959296 -11.989681 
L 27.379899 -12.022585 
L 27.800503 -12.077425 
L 28.221106 -12.022585 
L 28.641709 -12.033553 
L 29.062312 -11.989681 
L 29.482915 -12.121298 
L 29.903518 -12.011617 
L 30.324121 -12.044521 
L 30.744724 -12.000649 
L 31.165327 -12.044521 
L 31.58593 -12.077425 
L 32.006533 -12.000649 
L 32.427136 -12.066457 
L 32.847739 -12.066457 
L 33.268342 -12.099362 
L 33.688945 -12.033553 
L 34.109548 -12.033553 
L 34.530151 -12.066457 
L 34.950754 -12.000649 
L 35.371357 -12.044521 
L 35.79196 -12.044521 
L 36.212563 -12.022585 
L 36.633166 -12.011617 
L 37.053769 -12.077425 
L 37.474372 -12.044521 
L 37.894975 -12.066457 
L 38.315578 -12.121298 
L 38.736181 -12.088394 
L 39.156784 -12.055489 
L 39.577387 -12.022585 
L 39.99799 -12.088394 
L 40.418593 -12.022585 
L 40.839196 -11.989681 
L 41.259799 -12.088394 
L 41.680402 -12.033553 
L 42.101005 -12.055489 
L 42.521608 -12.088394 
L 42.942211 -12.099362 
L 43.362814 -12.066457 
L 43.783417 -12.099362 
L 44.20402 -12.121298 
L 44.624623 -12.16517 
L 45.045226 -12.033553 
L 45.465829 -12.055489 
L 45.886432 -12.022585 
L 46.307035 -12.011617 
L 46.727638 -12.022585 
L 47.148241 -12.176138 
L 47.568844 -12.033553 
L 47.989447 -12.088394 
L 48.41005 -12.121298 
L 48.830653 -12.099362 
L 49.251256 -12.099362 
L 49.671859 -12.154202 
L 50.092462 -12.055489 
L 50.513065 -12.220011 
L 50.933668 -12.121298 
L 51.354271 -12.066457 
L 51.774874 -12.198074 
L 52.195477 -12.176138 
L 52.61608 -12.132266 
L 53.036683 -12.022585 
L 53.457286 -12.11033 
L 53.877889 -12.132266 
L 54.298492 -12.132266 
L 54.719095 -12.154202 
L 55.139698 -12.066457 
L 55.560302 -12.077425 
L 55.980905 -12.143234 
L 56.401508 -12.187106 
L 56.822111 -12.176138 
L 57.242714 -12.263883 
L 57.663317 -12.230979 
L 58.08392 -12.252915 
L 58.504523 -12.143234 
L 58.925126 -12.187106 
L 59.345729 -12.198074 
L 59.766332 -12.121298 
L 60.186935 -12.252915 
L 60.607538 -12.285819 
L 61.028141 -12.121298 
L 61.448744 -12.220011 
L 61.869347 -12.209042 
L 62.28995 -12.209042 
L 62.710553 -12.176138 
L 63.131156 -12.274851 
L 63.551759 -12.230979 
L 63.972362 -12.220011 
L 64.392965 -12.296787 
L 64.813568 -12.340659 
L 65.234171 -12.516149 
L 65.654774 -12.362596 
L 66.075377 -12.274851 
L 66.49598 -12.307755 
L 66.916583 -12.307755 
L 67.337186 -12.351628 
L 67.757789 -12.428404 
L 68.178392 -12.362596 
L 68.598995 -12.505181 
L 69.019598 -12.406468 
L 69.440201 -12.428404 
L 69.860804 -12.538085 
L 70.281407 -12.779383 
L 70.70201 -12.932936 
L 71.122613 -13.371659 
L 71.543216 -13.821351 
L 71.963819 -13.952968 
L 72.384422 -14.654925 
L 72.805025 -15.038808 
L 73.225628 -16.135616 
L 73.646231 -16.859509 
L 74.066834 -18.427945 
L 74.487437 -20.413168 
L 74.90804 -23.769401 
L 75.328643 -26.939177 
L 75.749246 -32.006431 
L 76.169849 -36.996908 
L 76.590452 -44.356492 
L 77.011055 -52.176734 
L 77.431658 -61.148626 
L 77.852261 -67.345592 
L 78.272864 -77.589781 
L 78.693467 -84.620322 
L 79.11407 -90.203076 
L 79.534673 -92.605086 
L 79.955276 -94.667085 
L 80.375879 -95.04 
L 80.796482 -90.268884 
L 81.217085 -85.804875 
L 81.637688 -80.287929 
L 82.058291 -70.592145 
L 82.478894 -62.069945 
L 82.899497 -54.019372 
L 83.320101 -46.626885 
L 83.740704 -39.355046 
L 84.161307 -32.521931 
L 84.58191 -27.410805 
L 85.002513 -22.935827 
L 85.423116 -18.998285 
L 85.843719 -16.651116 
L 86.264322 -14.632989 
L 86.684925 -13.876191 
L 87.105528 -13.042617 
L 87.526131 -12.603893 
L 87.946734 -12.252915 
L 88.367337 -12.132266 
L 88.78794 -12.055489 
L 89.208543 -12.000649 
L 89.629146 -11.956777 
L 90.049749 -11.901936 
L 90.470352 -11.901936 
L 90.890955 -11.890968 
L 91.311558 -11.88 
L 91.732161 -11.890968 
L 92.152764 -11.890968 
L 92.573367 -11.901936 
L 92.99397 -11.901936 
L 93.414573 -11.901936 
L 93.835176 -11.901936 
L 94.255779 -11.890968 
L 94.676382 -11.923872 
L 95.096985 -11.901936 
L 95.517588 -11.901936 
L 95.938191 -11.890968 
L 96.358794 -11.88 
L 96.779397 -11.88 
L 97.2 -11.901936 
L 97.2 -11.88 
L 97.2 -11.88 
L 96.779397 -11.88 
L 96.358794 -11.88 
L 95.938191 -11.88 
L 95.517588 -11.88 
L 95.096985 -11.88 
L 94.676382 -11.88 
L 94.255779 -11.88 
L 93.835176 -11.88 
L 93.414573 -11.88 
L 92.99397 -11.88 
L 92.573367 -11.88 
L 92.152764 -11.88 
L 91.732161 -11.88 
L 91.311558 -11.88 
L 90.890955 -11.88 
L 90.470352 -11.88 
L 90.049749 -11.88 
L 89.629146 -11.88 
L 89.208543 -11.88 
L 88.78794 -11.88 
L 88.367337 -11.88 
L 87.946734 -11.88 
L 87.526131 -11.88 
L 87.105528 -11.88 
L 86.684925 -11.88 
L 86.264322 -11.88 
L 85.843719 -11.88 
L 85.423116 -11.88 
L 85.002513 -11.88 
L 84.58191 -11.88 
L 84.161307 -11.88 
L 83.740704 -11.88 
L 83.320101 -11.88 
L 82.899497 -11.88 
L 82.478894 -11.88 
L 82.058291 -11.88 
L 81.637688 -11.88 
L 81.217085 -11.88 
L 80.796482 -11.88 
L 80.375879 -11.88 
L 79.955276 -11.88 
L 79.534673 -11.88 
L 79.11407 -11.88 
L 78.693467 -11.88 
L 78.272864 -11.88 
L 77.852261 -11.88 
L 77.431658 -11.88 
L 77.011055 -11.88 
L 76.590452 -11.88 
L 76.169849 -11.88 
L 75.749246 -11.88 
L 75.328643 -11.88 
L 74.90804 -11.88 
L 74.487437 -11.88 
L 74.066834 -11.88 
L 73.646231 -11.88 
L 73.225628 -11.88 
L 72.805025 -11.88 
L 72.384422 -11.88 
L 71.963819 -11.88 
L 71.543216 -11.88 
L 71.122613 -11.88 
L 70.70201 -11.88 
L 70.281407 -11.88 
L 69.860804 -11.88 
L 69.440201 -11.88 
L 69.019598 -11.88 
L 68.598995 -11.88 
L 68.178392 -11.88 
L 67.757789 -11.88 
L 67.337186 -11.88 
L 66.916583 -11.88 
L 66.49598 -11.88 
L 66.075377 -11.88 
L 65.654774 -11.88 
L 65.234171 -11.88 
L 64.813568 -11.88 
L 64.392965 -11.88 
L 63.972362 -11.88 
L 63.551759 -11.88 
L 63.131156 -11.88 
L 62.710553 -11.88 
L 62.28995 -11.88 
L 61.869347 -11.88 
L 61.448744 -11.88 
L 61.028141 -11.88 
L 60.607538 -11.88 
L 60.186935 -11.88 
L 59.766332 -11.88 
L 59.345729 -11.88 
L 58.925126 -11.88 
L 58.504523 -11.88 
L 58.08392 -11.88 
L 57.663317 -11.88 
L 57.242714 -11.88 
L 56.822111 -11.88 
L 56.401508 -11.88 
L 55.980905 -11.88 
L 55.560302 -11.88 
L 55.139698 -11.88 
L 54.719095 -11.88 
L 54.298492 -11.88 
L 53.877889 -11.88 
L 53.457286 -11.88 
L 53.036683 -11.88 
L 52.61608 -11.88 
L 52.195477 -11.88 
L 51.774874 -11.88 
L 51.354271 -11.88 
L 50.933668 -11.88 
L 50.513065 -11.88 
L 50.092462 -11.88 
L 49.671859 -11.88 
L 49.251256 -11.88 
L 48.830653 -11.88 
L 48.41005 -11.88 
L 47.989447 -11.88 
L 47.568844 -11.88 
L 47.148241 -11.88 
L 46.727638 -11.88 
L 46.307035 -11.88 
L 45.886432 -11.88 
L 45.465829 -11.88 
L 45.045226 -11.88 
L 44.624623 -11.88 
L 44.20402 -11.88 
L 43.783417 -11.88 
L 43.362814 -11.88 
L 42.942211 -11.88 
L 42.521608 -11.88 
L 42.101005 -11.88 
L 41.680402 -11.88 
L 41.259799 -11.88 
L 40.839196 -11.88 
L 40.418593 -11.88 
L 39.99799 -11.88 
L 39.577387 -11.88 
L 39.156784 -11.88 
L 38.736181 -11.88 
L 38.315578 -11.88 
L 37.894975 -11.88 
L 37.474372 -11.88 
L 37.053769 -11.88 
L 36.633166 -11.88 
L 36.212563 -11.88 
L 35.79196 -11.88 
L 35.371357 -11.88 
L 34.950754 -11.88 
L 34.530151 -11.88 
L 34.109548 -11.88 
L 33.688945 -11.88 
L 33.268342 -11.88 
L 32.847739 -11.88 
L 32.427136 -11.88 
L 32.006533 -11.88 
L 31.58593 -11.88 
L 31.165327 -11.88 
L 30.744724 -11.88 
L 30.324121 -11.88 
L 29.903518 -11.88 
L 29.482915 -11.88 
L 29.062312 -11.88 
L 28.641709 -11.88 
L 28.221106 -11.88 
L 27.800503 -11.88 
L 27.379899 -11.88 
L 26.959296 -11.88 
L 26.538693 -11.88 
L 26.11809 -11.88 
L 25.697487 -11.88 
L 25.276884 -11.88 
L 24.856281 -11.88 
L 24.435678 -11.88 
L 24.015075 -11.88 
L 23.594472 -11.88 
L 23.173869 -11.88 
L 22.753266 -11.88 
L 22.332663 -11.88 
L 21.91206 -11.88 
L 21.491457 -11.88 
L 21.070854 -11.88 
L 20.650251 -11.88 
L 20.229648 -11.88 
L 19.809045 -11.88 
L 19.388442 -11.88 
L 18.967839 -11.88 
L 18.547236 -11.88 
L 18.126633 -11.88 
L 17.70603 -11.88 
L 17.285427 -11.88 
L 16.864824 -11.88 
L 16.444221 -11.88 
L 16.023618 -11.88 
L 15.603015 -11.88 
L 15.182412 -11.88 
L 14.761809 -11.88 
L 14.341206 -11.88 
L 13.920603 -11.88 
L 13.5 -11.88 
z
" style="stroke: #000000; stroke-opacity: 0.3"/>
    </defs>
    <g clip-path="url(#p927e22bafb)">
     <use xlink:href="#mfbd55e9b7e" x="0" y="108" style="fill-opacity: 0.3; stroke: #000000; stroke-opacity: 0.3"/>
    </g>
   </g>
   <g id="matplotlib.axis_1">
    <g id="xtick_1">
     <g id="line2d_1">
      <defs>
       <path id="mb4be8ae902" d="M 0 0 
L 0 3.5 
" style="stroke: #000000; stroke-width: 0.5"/>
      </defs>
      <g>
       <use xlink:href="#mb4be8ae902" x="26.279102" y="96.12" style="stroke: #000000; stroke-width: 0.5"/>
      </g>
     </g>
     <g id="text_1">
      <text style="font-size: 20px; font-family: 'Arial', sans-serif; text-anchor: middle" x="26.279102" y="117.435625" transform="rotate(-0 26.279102 117.435625)">−100</text>
     </g>
    </g>
    <g id="xtick_2">
     <g id="line2d_2">
      <g>
       <use xlink:href="#mb4be8ae902" x="79.398013" y="96.12" style="stroke: #000000; stroke-width: 0.5"/>
      </g>
     </g>
     <g id="text_2">
      <text style="font-size: 20px; font-family: 'Arial', sans-serif; text-anchor: middle" x="79.398013" y="117.435625" transform="rotate(-0 79.398013 117.435625)">0</text>
     </g>
    </g>
    <g id="text_3">
     <text style="font-size: 20px; font-family: 'Arial', sans-serif; text-anchor: middle" x="55.35" y="139.97" transform="rotate(-0 55.35 139.97)">Height (nm)</text>
    </g>
   </g>
   <g id="matplotlib.axis_2">
    <g id="ytick_1">
     <g id="line2d_3">
      <defs>
       <path id="m1eacb9e47b" d="M 0 0 
L -3.5 0 
" style="stroke: #000000; stroke-width: 0.5"/>
      </defs>
      <g>
       <use xlink:href="#m1eacb9e47b" x="13.5" y="96.12" style="stroke: #000000; stroke-width: 0.5"/>
      </g>
     </g>
     <g id="text_4">
      <text style="font-size: 20px; font-family: 'Arial', sans-serif; text-anchor: end" x="6.5" y="103.277812" transform="rotate(-0 6.5 103.277812)">0.00</text>
     </g>
    </g>
    <g id="ytick_2">
     <g id="line2d_4">
      <g>
       <use xlink:href="#m1eacb9e47b" x="13.5" y="32.031302" style="stroke: #000000; stroke-width: 0.5"/>
      </g>
     </g>
     <g id="text_5">
      <text style="font-size: 20px; font-family: 'Arial', sans-serif; text-anchor: end" x="6.5" y="39.189114" transform="rotate(-0 6.5 39.189114)">0.05</text>
     </g>
    </g>
    <g id="text_6">
     <text style="font-size: 20px; font-family: 'Arial', sans-serif; text-anchor: middle" x="-40.396875" y="54.54" transform="rotate(-90 -40.396875 54.54)">Prob.</text>
    </g>
   </g>
   <g id="line2d_5">
    <path d="M 13.5 96.12 
L 70.70201 96.032646 
L 71.543216 95.834404 
L 71.963819 95.624893 
L 72.384422 95.285445 
L 72.805025 94.75221 
L 73.225628 93.940324 
L 73.646231 92.742675 
L 74.066834 91.031824 
L 74.487437 88.666509 
L 74.90804 85.503883 
L 75.749246 76.322849 
L 76.590452 63.123106 
L 78.693467 23.710575 
L 79.11407 18.229489 
L 79.534673 14.652882 
L 79.955276 13.270766 
L 80.375879 14.197538 
L 80.796482 17.356348 
L 81.217085 22.489621 
L 82.058291 36.9714 
L 83.740704 68.866674 
L 84.58191 80.488267 
L 85.423116 88.106391 
L 85.843719 90.618879 
L 86.264322 92.44817 
L 86.684925 93.73701 
L 87.105528 94.616268 
L 87.526131 95.197372 
L 88.367337 95.800725 
L 89.208543 96.02125 
L 90.890955 96.113255 
L 97.2 96.12 
L 97.2 96.12 
" clip-path="url(#p927e22bafb)" style="fill: none; stroke-dasharray: 3.7,1.6; stroke-dashoffset: 0; stroke: #000000"/>
   </g>
   <g id="patch_3">
    <path d="M 13.5 96.12 
L 13.5 12.96 
" style="fill: none; stroke: #000000; stroke-width: 0.5; stroke-linejoin: miter; stroke-linecap: square"/>
   </g>
   <g id="patch_4">
    <path d="M 97.2 96.12 
L 97.2 12.96 
" style="fill: none; stroke: #000000; stroke-width: 0.5; stroke-linejoin: miter; stroke-linecap: square"/>
   </g>
   <g id="patch_5">
    <path d="M 13.5 96.12 
L 97.2 96.12 
" style="fill: none; stroke: #000000; stroke-width: 0.5; stroke-linejoin: miter; stroke-linecap: square"/>
   </g>
   <g id="patch_6">
    <path d="M 13.5 12.96 
L 97.2 12.96 
" style="fill: none; stroke: #000000; stroke-width: 0.5; stroke-linejoin: miter; stroke-linecap: square"/>
   </g>
  </g>
 </g>
 <defs>
  <clipPath id="p927e22bafb">
   <rect x="13.5" y="12.96" width="83.7" height="83.16"/>
  </clipPath>
 </defs>
</svg>
