<?xml version="1.0" encoding="utf-8" standalone="no"?>
<!DOCTYPE svg PUBLIC "-//W3C//DTD SVG 1.1//EN"
  "http://www.w3.org/Graphics/SVG/1.1/DTD/svg11.dtd">
<svg xmlns:xlink="http://www.w3.org/1999/xlink" width="108pt" height="108pt" viewBox="0 0 108 108" xmlns="http://www.w3.org/2000/svg" version="1.1">
 <metadata>
  <rdf:RDF xmlns:dc="http://purl.org/dc/elements/1.1/" xmlns:cc="http://creativecommons.org/ns#" xmlns:rdf="http://www.w3.org/1999/02/22-rdf-syntax-ns#">
   <cc:Work>
    <dc:type rdf:resource="http://purl.org/dc/dcmitype/StillImage"/>
    <dc:date>2025-04-27T18:32:28.228341</dc:date>
    <dc:format>image/svg+xml</dc:format>
    <dc:creator>
     <cc:Agent>
      <dc:title>Matplotlib v3.10.1, https://matplotlib.org/</dc:title>
     </cc:Agent>
    </dc:creator>
   </cc:Work>
  </rdf:RDF>
 </metadata>
 <defs>
  <style type="text/css">*{stroke-linejoin: round; stroke-linecap: butt}</style>
 </defs>
 <g id="figure_1">
  <g id="patch_1">
   <path d="M 0 108 
L 108 108 
L 108 0 
L 0 0 
z
" style="fill: #ffffff"/>
  </g>
  <g id="axes_1">
   <g id="patch_2">
    <path d="M 13.5 96.12 
L 97.2 96.12 
L 97.2 12.96 
L 13.5 12.96 
z
" style="fill: #ffffff"/>
   </g>
   <g id="FillBetweenPolyCollection_1">
    <path d="M 13.5 96.12 
L 13.5 96.019281 
L 13.920603 96.052854 
L 14.341206 95.985709 
L 14.761809 96.019281 
L 15.182412 96.019281 
L 15.603015 95.952136 
L 16.023618 95.918563 
L 16.444221 95.918563 
L 16.864824 96.019281 
L 17.285427 95.88499 
L 17.70603 95.683553 
L 18.126633 95.784271 
L 18.547236 95.784271 
L 18.967839 95.549261 
L 19.388442 95.17996 
L 19.809045 95.280678 
L 20.229648 95.280678 
L 20.650251 95.482115 
L 21.070854 95.482115 
L 21.491457 95.17996 
L 21.91206 95.549261 
L 22.332663 95.280678 
L 22.753266 95.213532 
L 23.173869 95.079241 
L 23.594472 95.314251 
L 24.015075 95.314251 
L 24.435678 94.94495 
L 24.856281 94.844231 
L 25.276884 94.642794 
L 25.697487 94.374211 
L 26.11809 94.273492 
L 26.538693 94.609221 
L 26.959296 94.072055 
L 27.379899 94.004909 
L 27.800503 93.467743 
L 28.221106 93.602035 
L 28.641709 93.635608 
L 29.062312 93.870618 
L 29.482915 93.635608 
L 29.903518 93.299879 
L 30.324121 93.66918 
L 30.744724 93.19916 
L 31.165327 93.971336 
L 31.58593 93.19916 
L 32.006533 92.49413 
L 32.427136 91.990537 
L 32.847739 92.326266 
L 33.268342 91.822673 
L 33.688945 91.285507 
L 34.109548 90.916205 
L 34.530151 91.285507 
L 34.950754 90.781914 
L 35.371357 90.379039 
L 35.79196 89.606863 
L 36.212563 89.371853 
L 36.633166 88.63325 
L 37.053769 86.484586 
L 37.474372 86.014566 
L 37.894975 86.518159 
L 38.315578 83.765184 
L 38.736181 82.825143 
L 39.156784 80.91149 
L 39.577387 79.333565 
L 39.99799 79.132128 
L 40.418593 77.453484 
L 40.839196 76.580589 
L 41.259799 75.439112 
L 41.680402 70.604618 
L 42.101005 70.705337 
L 42.521608 65.467969 
L 42.942211 67.11304 
L 43.362814 62.513557 
L 43.783417 62.983577 
L 44.20402 58.014792 
L 44.624623 57.679063 
L 45.045226 54.321776 
L 45.465829 51.132354 
L 45.886432 51.870957 
L 46.307035 45.727122 
L 46.727638 43.108438 
L 47.148241 40.825482 
L 47.568844 37.468195 
L 47.989447 33.909471 
L 48.41005 30.921486 
L 48.830653 28.40352 
L 49.251256 26.154138 
L 49.671859 23.535454 
L 50.092462 21.957529 
L 50.513065 17.626629 
L 50.933668 17.76092 
L 51.354271 18.533096 
L 51.774874 13.463593 
L 52.195477 12.96 
L 52.61608 15.780121 
L 53.036683 16.11585 
L 53.457286 17.727348 
L 53.877889 16.283714 
L 54.298492 15.007945 
L 54.719095 15.813694 
L 55.139698 17.626629 
L 55.560302 18.801679 
L 55.980905 18.432378 
L 56.401508 20.312459 
L 56.822111 24.341203 
L 57.242714 26.52344 
L 57.663317 26.657731 
L 58.08392 30.317174 
L 58.504523 31.693662 
L 58.925126 33.372305 
L 59.345729 36.192426 
L 59.766332 40.389035 
L 60.186935 40.120452 
L 60.607538 45.022091 
L 61.028141 48.446524 
L 61.448744 50.695906 
L 61.869347 51.233072 
L 62.28995 56.604732 
L 62.710553 59.223415 
L 63.131156 59.357707 
L 63.551759 62.144255 
L 63.972362 65.635834 
L 64.392965 63.890044 
L 64.813568 68.690965 
L 65.234171 70.537473 
L 65.654774 72.887574 
L 66.075377 75.204102 
L 66.49598 76.547017 
L 66.916583 77.252047 
L 67.337186 79.031409 
L 67.757789 80.642907 
L 68.178392 81.817957 
L 68.598995 82.724425 
L 69.019598 84.268777 
L 69.440201 85.678837 
L 69.860804 87.223189 
L 70.281407 87.290335 
L 70.70201 88.498958 
L 71.122613 89.774727 
L 71.543216 89.640436 
L 71.963819 90.244748 
L 72.384422 91.7891 
L 72.805025 91.218361 
L 73.225628 91.822673 
L 73.646231 91.923391 
L 74.066834 92.762713 
L 74.487437 93.132015 
L 74.90804 93.19916 
L 75.328643 94.004909 
L 75.749246 94.038482 
L 76.169849 94.206346 
L 76.590452 94.206346 
L 77.011055 94.508502 
L 77.431658 94.642794 
L 77.852261 94.844231 
L 78.272864 94.844231 
L 78.693467 94.642794 
L 79.11407 94.642794 
L 79.534673 94.810658 
L 79.955276 95.079241 
L 80.375879 95.213532 
L 80.796482 95.582834 
L 81.217085 95.515688 
L 81.637688 95.616407 
L 82.058291 95.582834 
L 82.478894 95.482115 
L 82.899497 95.549261 
L 83.320101 95.582834 
L 83.740704 95.784271 
L 84.161307 95.717126 
L 84.58191 95.683553 
L 85.002513 95.683553 
L 85.423116 95.88499 
L 85.843719 95.64998 
L 86.264322 95.750698 
L 86.684925 95.717126 
L 87.105528 95.64998 
L 87.526131 95.817844 
L 87.946734 95.750698 
L 88.367337 95.88499 
L 88.78794 95.515688 
L 89.208543 95.64998 
L 89.629146 95.582834 
L 90.049749 95.683553 
L 90.470352 95.616407 
L 90.890955 95.817844 
L 91.311558 95.750698 
L 91.732161 95.683553 
L 92.152764 95.88499 
L 92.573367 95.985709 
L 92.99397 95.750698 
L 93.414573 95.784271 
L 93.835176 95.717126 
L 94.255779 95.918563 
L 94.676382 95.851417 
L 95.096985 95.952136 
L 95.517588 96.019281 
L 95.938191 95.985709 
L 96.358794 95.985709 
L 96.779397 96.052854 
L 97.2 96.052854 
L 97.2 96.12 
L 97.2 96.12 
L 96.779397 96.12 
L 96.358794 96.12 
L 95.938191 96.12 
L 95.517588 96.12 
L 95.096985 96.12 
L 94.676382 96.12 
L 94.255779 96.12 
L 93.835176 96.12 
L 93.414573 96.12 
L 92.99397 96.12 
L 92.573367 96.12 
L 92.152764 96.12 
L 91.732161 96.12 
L 91.311558 96.12 
L 90.890955 96.12 
L 90.470352 96.12 
L 90.049749 96.12 
L 89.629146 96.12 
L 89.208543 96.12 
L 88.78794 96.12 
L 88.367337 96.12 
L 87.946734 96.12 
L 87.526131 96.12 
L 87.105528 96.12 
L 86.684925 96.12 
L 86.264322 96.12 
L 85.843719 96.12 
L 85.423116 96.12 
L 85.002513 96.12 
L 84.58191 96.12 
L 84.161307 96.12 
L 83.740704 96.12 
L 83.320101 96.12 
L 82.899497 96.12 
L 82.478894 96.12 
L 82.058291 96.12 
L 81.637688 96.12 
L 81.217085 96.12 
L 80.796482 96.12 
L 80.375879 96.12 
L 79.955276 96.12 
L 79.534673 96.12 
L 79.11407 96.12 
L 78.693467 96.12 
L 78.272864 96.12 
L 77.852261 96.12 
L 77.431658 96.12 
L 77.011055 96.12 
L 76.590452 96.12 
L 76.169849 96.12 
L 75.749246 96.12 
L 75.328643 96.12 
L 74.90804 96.12 
L 74.487437 96.12 
L 74.066834 96.12 
L 73.646231 96.12 
L 73.225628 96.12 
L 72.805025 96.12 
L 72.384422 96.12 
L 71.963819 96.12 
L 71.543216 96.12 
L 71.122613 96.12 
L 70.70201 96.12 
L 70.281407 96.12 
L 69.860804 96.12 
L 69.440201 96.12 
L 69.019598 96.12 
L 68.598995 96.12 
L 68.178392 96.12 
L 67.757789 96.12 
L 67.337186 96.12 
L 66.916583 96.12 
L 66.49598 96.12 
L 66.075377 96.12 
L 65.654774 96.12 
L 65.234171 96.12 
L 64.813568 96.12 
L 64.392965 96.12 
L 63.972362 96.12 
L 63.551759 96.12 
L 63.131156 96.12 
L 62.710553 96.12 
L 62.28995 96.12 
L 61.869347 96.12 
L 61.448744 96.12 
L 61.028141 96.12 
L 60.607538 96.12 
L 60.186935 96.12 
L 59.766332 96.12 
L 59.345729 96.12 
L 58.925126 96.12 
L 58.504523 96.12 
L 58.08392 96.12 
L 57.663317 96.12 
L 57.242714 96.12 
L 56.822111 96.12 
L 56.401508 96.12 
L 55.980905 96.12 
L 55.560302 96.12 
L 55.139698 96.12 
L 54.719095 96.12 
L 54.298492 96.12 
L 53.877889 96.12 
L 53.457286 96.12 
L 53.036683 96.12 
L 52.61608 96.12 
L 52.195477 96.12 
L 51.774874 96.12 
L 51.354271 96.12 
L 50.933668 96.12 
L 50.513065 96.12 
L 50.092462 96.12 
L 49.671859 96.12 
L 49.251256 96.12 
L 48.830653 96.12 
L 48.41005 96.12 
L 47.989447 96.12 
L 47.568844 96.12 
L 47.148241 96.12 
L 46.727638 96.12 
L 46.307035 96.12 
L 45.886432 96.12 
L 45.465829 96.12 
L 45.045226 96.12 
L 44.624623 96.12 
L 44.20402 96.12 
L 43.783417 96.12 
L 43.362814 96.12 
L 42.942211 96.12 
L 42.521608 96.12 
L 42.101005 96.12 
L 41.680402 96.12 
L 41.259799 96.12 
L 40.839196 96.12 
L 40.418593 96.12 
L 39.99799 96.12 
L 39.577387 96.12 
L 39.156784 96.12 
L 38.736181 96.12 
L 38.315578 96.12 
L 37.894975 96.12 
L 37.474372 96.12 
L 37.053769 96.12 
L 36.633166 96.12 
L 36.212563 96.12 
L 35.79196 96.12 
L 35.371357 96.12 
L 34.950754 96.12 
L 34.530151 96.12 
L 34.109548 96.12 
L 33.688945 96.12 
L 33.268342 96.12 
L 32.847739 96.12 
L 32.427136 96.12 
L 32.006533 96.12 
L 31.58593 96.12 
L 31.165327 96.12 
L 30.744724 96.12 
L 30.324121 96.12 
L 29.903518 96.12 
L 29.482915 96.12 
L 29.062312 96.12 
L 28.641709 96.12 
L 28.221106 96.12 
L 27.800503 96.12 
L 27.379899 96.12 
L 26.959296 96.12 
L 26.538693 96.12 
L 26.11809 96.12 
L 25.697487 96.12 
L 25.276884 96.12 
L 24.856281 96.12 
L 24.435678 96.12 
L 24.015075 96.12 
L 23.594472 96.12 
L 23.173869 96.12 
L 22.753266 96.12 
L 22.332663 96.12 
L 21.91206 96.12 
L 21.491457 96.12 
L 21.070854 96.12 
L 20.650251 96.12 
L 20.229648 96.12 
L 19.809045 96.12 
L 19.388442 96.12 
L 18.967839 96.12 
L 18.547236 96.12 
L 18.126633 96.12 
L 17.70603 96.12 
L 17.285427 96.12 
L 16.864824 96.12 
L 16.444221 96.12 
L 16.023618 96.12 
L 15.603015 96.12 
L 15.182412 96.12 
L 14.761809 96.12 
L 14.341206 96.12 
L 13.920603 96.12 
L 13.5 96.12 
z
" clip-path="url(#p208fe79386)" style="fill: #1f77b4"/>
   </g>
   <g id="matplotlib.axis_1">
    <g id="xtick_1">
     <g id="line2d_1">
      <defs>
       <path id="m872926ede4" d="M 0 0 
L 0 3.5 
" style="stroke: #000000; stroke-width: 0.5"/>
      </defs>
      <g>
       <use xlink:href="#m872926ede4" x="18.992446" y="96.12" style="stroke: #000000; stroke-width: 0.5"/>
      </g>
     </g>
     <g id="text_1">
      <text style="font-size: 20px; font-family: 'Arial', sans-serif; text-anchor: middle" x="18.992446" y="117.435625" transform="rotate(-0 18.992446 117.435625)">−50</text>
     </g>
    </g>
    <g id="xtick_2">
     <g id="line2d_2">
      <g>
       <use xlink:href="#m872926ede4" x="53.627541" y="96.12" style="stroke: #000000; stroke-width: 0.5"/>
      </g>
     </g>
     <g id="text_2">
      <text style="font-size: 20px; font-family: 'Arial', sans-serif; text-anchor: middle" x="53.627541" y="117.435625" transform="rotate(-0 53.627541 117.435625)">0</text>
     </g>
    </g>
    <g id="xtick_3">
     <g id="line2d_3">
      <g>
       <use xlink:href="#m872926ede4" x="88.262636" y="96.12" style="stroke: #000000; stroke-width: 0.5"/>
      </g>
     </g>
     <g id="text_3">
      <text style="font-size: 20px; font-family: 'Arial', sans-serif; text-anchor: middle" x="88.262636" y="117.435625" transform="rotate(-0 88.262636 117.435625)">50</text>
     </g>
    </g>
    <g id="text_4">
     <text style="font-size: 20px; font-family: 'Arial', sans-serif; text-anchor: middle" x="55.35" y="139.97" transform="rotate(-0 55.35 139.97)">Height (nm)</text>
    </g>
   </g>
   <g id="matplotlib.axis_2">
    <g id="ytick_1">
     <g id="line2d_4">
      <defs>
       <path id="m7a9b2ca861" d="M 0 0 
L -3.5 0 
" style="stroke: #000000; stroke-width: 0.5"/>
      </defs>
      <g>
       <use xlink:href="#m7a9b2ca861" x="13.5" y="96.12" style="stroke: #000000; stroke-width: 0.5"/>
      </g>
     </g>
     <g id="text_5">
      <text style="font-size: 20px; font-family: 'Arial', sans-serif; text-anchor: end" x="6.5" y="103.277812" transform="rotate(-0 6.5 103.277812)">0.00</text>
     </g>
    </g>
    <g id="ytick_2">
     <g id="line2d_5">
      <g>
       <use xlink:href="#m7a9b2ca861" x="13.5" y="20.540754" style="stroke: #000000; stroke-width: 0.5"/>
      </g>
     </g>
     <g id="text_6">
      <text style="font-size: 20px; font-family: 'Arial', sans-serif; text-anchor: end" x="6.5" y="27.698567" transform="rotate(-0 6.5 27.698567)">0.02</text>
     </g>
    </g>
    <g id="text_7">
     <text style="font-size: 20px; font-family: 'Arial', sans-serif; text-anchor: middle" x="-40.396875" y="54.54" transform="rotate(-90 -40.396875 54.54)">Prob.</text>
    </g>
   </g>
   <g id="patch_3">
    <path d="M 13.5 96.12 
L 13.5 12.96 
" style="fill: none; stroke: #000000; stroke-width: 0.5; stroke-linejoin: miter; stroke-linecap: square"/>
   </g>
   <g id="patch_4">
    <path d="M 97.2 96.12 
L 97.2 12.96 
" style="fill: none; stroke: #000000; stroke-width: 0.5; stroke-linejoin: miter; stroke-linecap: square"/>
   </g>
   <g id="patch_5">
    <path d="M 13.5 96.12 
L 97.2 96.12 
" style="fill: none; stroke: #000000; stroke-width: 0.5; stroke-linejoin: miter; stroke-linecap: square"/>
   </g>
   <g id="patch_6">
    <path d="M 13.5 12.96 
L 97.2 12.96 
" style="fill: none; stroke: #000000; stroke-width: 0.5; stroke-linejoin: miter; stroke-linecap: square"/>
   </g>
  </g>
 </g>
 <defs>
  <clipPath id="p208fe79386">
   <rect x="13.5" y="12.96" width="83.7" height="83.16"/>
  </clipPath>
 </defs>
</svg>
